<svg width="360" height="117" viewBox="0 0 360 117" fill="none" xmlns="http://www.w3.org/2000/svg">
<g filter="url(#filter0_b_74_2176)">
<rect x="16" y="53" width="48" height="48" rx="24" fill="#DBDBE0" fill-opacity="0.8"/>
<mask id="mask0_74_2176" style="mask-type:alpha" maskUnits="userSpaceOnUse" x="28" y="65" width="24" height="24">
<rect x="28" y="65" width="24" height="24" fill="#D9D9D9"/>
</mask>
<g mask="url(#mask0_74_2176)">
<path d="M43.2996 85.925L34.9746 77.625C34.8913 77.5417 34.8289 77.4457 34.7876 77.337C34.7456 77.229 34.7246 77.1167 34.7246 77C34.7246 76.8833 34.7456 76.7707 34.7876 76.662C34.8289 76.554 34.8913 76.4583 34.9746 76.375L43.2996 68.05C43.4996 67.85 43.7329 67.75 43.9996 67.75C44.2663 67.75 44.5079 67.8583 44.7246 68.075C44.9246 68.2583 45.0246 68.4873 45.0246 68.762C45.0246 69.0373 44.9246 69.275 44.7246 69.475L37.1746 77L44.7246 84.55C44.9079 84.7333 44.9996 84.9583 44.9996 85.225C44.9996 85.4917 44.8996 85.725 44.6996 85.925C44.4996 86.125 44.2663 86.225 43.9996 86.225C43.7329 86.225 43.4996 86.125 43.2996 85.925Z" fill="#0A0A0C"/>
</g>
</g>
<g filter="url(#filter1_b_74_2176)">
<rect x="296" y="53" width="48" height="48" rx="24" fill="#DBDBE0" fill-opacity="0.8"/>
<mask id="mask1_74_2176" style="mask-type:alpha" maskUnits="userSpaceOnUse" x="308" y="65" width="24" height="24">
<rect x="308" y="65" width="24" height="24" fill="#D9D9D9"/>
</mask>
<g mask="url(#mask1_74_2176)">
<path d="M326 86.75C325.233 86.75 324.583 86.4833 324.05 85.95C323.517 85.4167 323.25 84.7667 323.25 84C323.25 83.8833 323.258 83.754 323.275 83.612C323.292 83.4707 323.325 83.35 323.375 83.25L315.975 78.9C315.708 79.1667 315.408 79.375 315.075 79.525C314.742 79.675 314.383 79.75 314 79.75C313.233 79.75 312.583 79.4833 312.05 78.95C311.517 78.4167 311.25 77.7667 311.25 77C311.25 76.2333 311.517 75.5833 312.05 75.05C312.583 74.5167 313.233 74.25 314 74.25C314.383 74.25 314.742 74.325 315.075 74.475C315.408 74.625 315.708 74.8333 315.975 75.1L323.375 70.75C323.325 70.65 323.292 70.529 323.275 70.387C323.258 70.2457 323.25 70.1167 323.25 70C323.25 69.2333 323.517 68.5833 324.05 68.05C324.583 67.5167 325.233 67.25 326 67.25C326.767 67.25 327.417 67.5167 327.95 68.05C328.483 68.5833 328.75 69.2333 328.75 70C328.75 70.7667 328.483 71.4167 327.95 71.95C327.417 72.4833 326.767 72.75 326 72.75C325.617 72.75 325.258 72.675 324.925 72.525C324.592 72.375 324.292 72.1667 324.025 71.9L316.625 76.25C316.675 76.35 316.708 76.4667 316.725 76.6C316.742 76.7333 316.75 76.8667 316.75 77C316.75 77.1167 316.742 77.2457 316.725 77.387C316.708 77.529 316.675 77.65 316.625 77.75L324.025 82.1C324.292 81.8333 324.592 81.625 324.925 81.475C325.258 81.325 325.617 81.25 326 81.25C326.767 81.25 327.417 81.5167 327.95 82.05C328.483 82.5833 328.75 83.2333 328.75 84C328.75 84.7667 328.483 85.4167 327.95 85.95C327.417 86.4833 326.767 86.75 326 86.75ZM326 71.25C326.35 71.25 326.646 71.129 326.888 70.887C327.129 70.6457 327.25 70.35 327.25 70C327.25 69.65 327.129 69.354 326.888 69.112C326.646 68.8707 326.35 68.75 326 68.75C325.65 68.75 325.354 68.8707 325.113 69.112C324.871 69.354 324.75 69.65 324.75 70C324.75 70.35 324.871 70.6457 325.113 70.887C325.354 71.129 325.65 71.25 326 71.25ZM314 78.25C314.35 78.25 314.646 78.129 314.888 77.887C315.129 77.6457 315.25 77.35 315.25 77C315.25 76.65 315.129 76.3543 314.888 76.113C314.646 75.871 314.35 75.75 314 75.75C313.65 75.75 313.354 75.871 313.113 76.113C312.871 76.3543 312.75 76.65 312.75 77C312.75 77.35 312.871 77.6457 313.113 77.887C313.354 78.129 313.65 78.25 314 78.25ZM326 85.25C326.35 85.25 326.646 85.129 326.888 84.887C327.129 84.6457 327.25 84.35 327.25 84C327.25 83.65 327.129 83.3543 326.888 83.113C326.646 82.871 326.35 82.75 326 82.75C325.65 82.75 325.354 82.871 325.113 83.113C324.871 83.3543 324.75 83.65 324.75 84C324.75 84.35 324.871 84.6457 325.113 84.887C325.354 85.129 325.65 85.25 326 85.25Z" fill="#0A0A0C"/>
</g>
</g>
<defs>
<filter id="filter0_b_74_2176" x="-64" y="-27" width="208" height="208" filterUnits="userSpaceOnUse" color-interpolation-filters="sRGB">
<feFlood flood-opacity="0" result="BackgroundImageFix"/>
<feGaussianBlur in="BackgroundImageFix" stdDeviation="40"/>
<feComposite in2="SourceAlpha" operator="in" result="effect1_backgroundBlur_74_2176"/>
<feBlend mode="normal" in="SourceGraphic" in2="effect1_backgroundBlur_74_2176" result="shape"/>
</filter>
<filter id="filter1_b_74_2176" x="216" y="-27" width="208" height="208" filterUnits="userSpaceOnUse" color-interpolation-filters="sRGB">
<feFlood flood-opacity="0" result="BackgroundImageFix"/>
<feGaussianBlur in="BackgroundImageFix" stdDeviation="40"/>
<feComposite in2="SourceAlpha" operator="in" result="effect1_backgroundBlur_74_2176"/>
<feBlend mode="normal" in="SourceGraphic" in2="effect1_backgroundBlur_74_2176" result="shape"/>
</filter>
</defs>
</svg>
